<?xml version="1.0"?><svg width="640" height="480" xmlns="http://www.w3.org/2000/svg">
 <title>red splatter</title>
 <metadata id="metadata7">image/svg+xmlink splash with dropsSergio Luiz Araujo Silvadropsplashink</metadata>
 <g>
  <title>Layer 1</title>
  <g id="layer1">
   <path _idv_element_hash="192900896" d="m414.156006,350.016998c-23.10202,19.770996 61.729004,47.73999 33.519989,64.940002c-23.274994,14.19101 -26.895996,-62.627991 -52.806,-44.707001c-12.802002,8.854004 17.065002,30.802002 2.778015,37.167999c-15.687012,6.989014 -12.546021,-31.559998 -29.568024,-28.058014c-28.169983,5.796021 26.144012,82.20401 -6.409973,85.947021c-31.511017,3.623993 10.352997,-83.045013 -15.21701,-83.641998c-15.171997,-0.354004 -6.838989,36.230988 -22.446991,33.225006c-17.136017,-3.302002 10.588989,-32.460022 -4.63501,-40.623016c-46.912994,-25.152008 -34.682007,79.347992 -66.136993,62.894989c-37.805008,-19.773987 59.563995,-47.806 40.811005,-84.733002c-12.774017,-25.153992 -25.832001,39.968018 -45.105011,18.570007c-16.050995,-17.820007 51.350983,-16.766998 24.169006,-42.412994c-11.338013,-10.697998 -28.247009,26.769012 -33.593002,11.932007c-5.87001,-16.289001 32.738998,-12.399017 32.986984,-29.872009c0.585999,-41.492981 -85.174988,16.421997 -87.154984,-10.660004c-2.371002,-32.436005 82.771988,12.928009 87.293991,-22.285004c1.970001,-15.335999 -83.167999,-7.190979 -78.798996,-21.850983c4.796997,-16.097 73.194992,18.509979 78.99501,2.315979c5.280975,-14.749985 -32.769012,-21.187988 -24.58902,-34.469986c8.980011,-14.582993 26.295013,18.057007 37.522003,5.026001c10.223999,-11.869003 -21.881989,-23.248993 -9.718994,-33.067001c13.354004,-10.778992 23.872009,31.887009 37.838989,22.238998c29.460022,-20.347992 -49.013,-72.08699 -21.182983,-83.798996c30.716003,-12.926003 10.281982,75.009995 47.298981,68.923004c15.133026,-2.488007 -9.306,-35.255005 6.230011,-36.442001c17.058014,-1.303009 -4.526001,34.149002 12.859009,35.860001c15.832977,1.55899 7.944977,-34.684998 22.914978,-30.850006c16.436005,4.212006 -11.026001,38.787994 4.841003,44.014008c14.451019,4.759995 21.862,-39.51001 35.761017,-31.903c15.259979,8.35199 -23.050018,36.445999 -9.774994,47.319c12.090973,9.903 39.98999,-58.632004 58.934998,-36.562012c19.675995,22.922012 -60.820007,32.117004 -39.332001,48.570007c12.304993,9.421982 28.067993,-13.725998 33.592987,0.55899c6.065002,15.685013 -34.122986,11.815018 -30.449005,28.149002c7.851013,34.914001 58.942017,-25.628998 65.029022,0.345001c9.886963,42.181 -39.678009,2.855011 -54.542023,27.597015c-13.765991,22.914978 68.842987,18.915985 65.024017,34.112976c-6.888,27.417999 -65.210022,-44.168976 -75.692993,-4.67099c-22.82901,19.903015 51.289978,35.248016 40.225983,52.143005c-18.181,9.225006 -41.062012,-44.076996 -61.472992,-31.242004z" id="path2854" fill="#ff0000"/>
   <path d="m185.300598,251.754684a7.35401,7.35401 0 1 1-14.708008,0a7.35401,7.35401 0 1 114.708008,0z" id="path2859" fill="#ff0000"/>
   <path id="path2857" d="m486.079498,239.988281a7.35401,7.35401 0 1 1-14.708008,0a7.35401,7.35401 0 1 114.708008,0z" fill="#ff0000"/>
   <path d="m390.482758,165.759552c0,0 5.719879,-61.354675 23.049164,-54.438721c16.919495,6.752411 -23.049164,54.438721 -23.049164,54.438721z" id="path2861" fill="#ff0000"/>
   <path id="path2864" d="m485.078674,304.108246c0,0 60.744446,-10.354767 58.549316,8.173981c-2.14325,18.090668 -58.549316,-8.173981 -58.549316,-8.173981z" fill="#ff0000"/>
   <path d="m224.976776,355.055206c0,0 -47.428879,39.339691 -54.792191,22.19574c-7.18924,-16.738556 54.792191,-22.19574 54.792191,-22.19574z" id="path2866" fill="#ff0000"/>
  </g>
 </g>
</svg>